
<svg
  version="1.0"
  xmlns="http://www.w3.org/2000/svg"
  xmlns:xlink="http://www.w3.org/1999/xlink"
  width="2400"
  height="1800"
>
  
  <rect
    x="0"
    y="0"
    width="100%"
    height="100%"
    fill="#073763"
    fill-opacity="1"
  ></rect>
  <svg
    version="1.0"
    xmlns="http://www.w3.org/2000/svg"
    xmlns:xlink="http://www.w3.org/1999/xlink"
    x="0"
    y="0"
    width="2400"
    height="1800"
    viewBox="0 0 340.000000 250.000000"
    preserveAspectRatio="xMidYMid meet"
    color-interpolation-filters="sRGB"
  >
    <defs><linearGradient id="92" x1="0%" y1="0%" x2="100%" y2="0%"><stop offset="0%" stop-color="#fa71cd"/> <stop offset="100%" stop-color="#9b59b6"/></linearGradient><linearGradient id="93" x1="0%" y1="0%" x2="100%" y2="0%"><stop offset="0%" stop-color="#f9d423"/> <stop offset="100%" stop-color="#f83600"/></linearGradient><linearGradient id="94" x1="0%" y1="0%" x2="100%" y2="0%"><stop offset="0%" stop-color="#0064d2"/> <stop offset="100%" stop-color="#1cb0f6"/></linearGradient><linearGradient id="95" x1="0%" y1="0%" x2="100%" y2="0%"><stop offset="0%" stop-color="#f00978"/> <stop offset="100%" stop-color="#3f51b1"/></linearGradient><linearGradient id="96" x1="0%" y1="0%" x2="100%" y2="0%"><stop offset="0%" stop-color="#7873f5"/> <stop offset="100%" stop-color="#ec77ab"/></linearGradient><linearGradient id="97" x1="0%" y1="0%" x2="100%" y2="0%"><stop offset="0%" stop-color="#f9d423"/> <stop offset="100%" stop-color="#e14fad"/></linearGradient><linearGradient id="98" x1="0%" y1="0%" x2="100%" y2="0%"><stop offset="0%" stop-color="#009efd"/> <stop offset="100%" stop-color="#2af598"/></linearGradient><linearGradient id="99" x1="0%" y1="0%" x2="100%" y2="0%"><stop offset="0%" stop-color="#ffcc00"/> <stop offset="100%" stop-color="#00b140"/></linearGradient><linearGradient id="100" x1="0%" y1="0%" x2="100%" y2="0%"><stop offset="0%" stop-color="#d51007"/> <stop offset="100%" stop-color="#ff8177"/></linearGradient><linearGradient id="102" x1="0%" y1="0%" x2="100%" y2="0%"><stop offset="0%" stop-color="#a2b6df"/> <stop offset="100%" stop-color="#0c3483"/></linearGradient><linearGradient id="103" x1="0%" y1="0%" x2="100%" y2="0%"><stop offset="0%" stop-color="#7ac5d8"/> <stop offset="100%" stop-color="#eea2a2"/></linearGradient><linearGradient id="104" x1="0%" y1="0%" x2="100%" y2="0%"><stop offset="0%" stop-color="#00ecbc"/> <stop offset="100%" stop-color="#007adf"/></linearGradient><linearGradient id="105" x1="0%" y1="0%" x2="100%" y2="0%"><stop offset="0%" stop-color="#b88746"/> <stop offset="100%" stop-color="#fdf5a6"/></linearGradient></defs> <g fill="#c69815" class="iconlinesvg-g iconlinesvg" transform="translate(74.30586457252502,98.2992115020752)"><g class="tp-name" transform="translate(0,0)"><g transform="translate(0, 0)"><g fill="#c69815" transform="scale(1)"><path d="M23.61 0L13.31-14.79L9.43-10.68L9.43 0L3.48 0L3.48-34.24L9.43-34.24L9.43-18.18L12.72-22.24L22.74-34.24L29.93-34.24L17.21-19.07L30.66 0L23.61 0Z" transform="translate(-3.4800783801436967, 36.11757021554539)"/></g></g><g transform="translate(31, 2.5589401691054423)"><g><g class="imagesvg"><g><rect fill="#c69815" fill-opacity="0" stroke-width="2" x="0" y="0" width="36.219733423231254" height="31.46997073951609" class="image-rect"/> <svg x="0" y="0" width="36.219733423231254" height="31.46997073951609" filtersec="colorsb4955864670" class="image-svg-svg primary" style="overflow: visible;"><svg xmlns="http://www.w3.org/2000/svg" viewBox="0 0.33000001311302185 97.52999877929688 84.73999786376953"><path fill="#c69815" d="M56.2.33H41.03L.3 70.21l-.3.74 7.73 14.12h82.81l6.99-15.17L56.2.33zm37.41 68.39H31.37l5.6-10.41h40.19l-32.66-55h10.06l39.05 65.41zM58.75 55.34H38.57l9.38-17.43 10.8 17.43zM41.96 4.77l30 50.57H62.2L41.93 22.63 8.75 80.73l-5.48-9.78L41.96 4.77zm46.8 77.34H11.34l30.73-53.67 4.09 6.6L26.32 71.7h67.33l-4.89 10.41z"/></svg></svg> </g></g></g></g><g transform="translate(71, 0)"><g fill="#c69815" transform="scale(1)"><path d="M17.19-6.91L17.19-6.91Q17.19-8.44 15.93-9.24Q14.67-10.04 11.76-10.65Q8.84-11.26 6.89-12.20L6.89-12.20Q2.61-14.27 2.61-18.20L2.61-18.20Q2.61-21.49 5.38-23.70Q8.16-25.91 12.44-25.91L12.44-25.91Q17.00-25.91 19.81-23.66Q22.62-21.40 22.62-17.80L22.62-17.80L16.91-17.80Q16.91-19.45 15.68-20.54Q14.46-21.63 12.44-21.63L12.44-21.63Q10.56-21.63 9.37-20.76Q8.18-19.89 8.18-18.44L8.18-18.44Q8.18-17.12 9.29-16.39Q10.39-15.66 13.76-14.92Q17.12-14.18 19.03-13.16Q20.95-12.13 21.88-10.70Q22.81-9.26 22.81-7.22L22.81-7.22Q22.81-3.79 19.96-1.66Q17.12 0.47 12.51 0.47L12.51 0.47Q9.38 0.47 6.94-0.66Q4.49-1.79 3.13-3.76Q1.76-5.74 1.76-8.02L1.76-8.02L7.31-8.02Q7.43-6.00 8.84-4.90Q10.25-3.81 12.58-3.81L12.58-3.81Q14.84-3.81 16.01-4.67Q17.19-5.53 17.19-6.91Z" transform="translate(-1.7635532331809272, 36.11757021554539)"/></g></g><g transform="translate(96, 0)"><g fill="#c69815" transform="scale(1)"><path d="M8.56-36.12L8.56-22.67Q11.36-25.91 15.64-25.91L15.64-25.91Q23.77-25.91 23.89-16.62L23.89-16.62L23.89 0L18.18 0L18.18-16.41Q18.18-19.05 17.04-20.14Q15.90-21.23 13.69-21.23L13.69-21.23Q10.25-21.23 8.56-18.18L8.56-18.18L8.56 0L2.85 0L2.85-36.12L8.56-36.12Z" transform="translate(-2.845199216198563, 36.11757021554539)"/></g></g><g transform="translate(121, 0)"><g fill="#c69815" transform="scale(1)"><path d="M28.22-34.24L28.22-29.44L17.54-29.44L17.54 0L11.64 0L11.64-29.44L1.06-29.44L1.06-34.24L28.22-34.24Z" transform="translate(-1.0581319399085567, 36.11757021554539)"/></g></g><g transform="translate(152, 0)"><g fill="#c69815" transform="scale(1)"><path d="M16.27-25.58L16.25-20.22Q15.12-20.41 13.92-20.41L13.92-20.41Q9.99-20.41 8.63-17.40L8.63-17.40L8.63 0L2.92 0L2.92-25.44L8.37-25.44L8.51-22.60Q10.58-25.91 14.25-25.91L14.25-25.91Q15.47-25.91 16.27-25.58L16.27-25.58Z" transform="translate(-2.9157413455258, 36.11757021554539)"/></g></g><g transform="translate(169, 0)"><g fill="#c69815" transform="scale(1)"><path d="M14.13 0.47L14.13 0.47Q8.70 0.47 5.33-2.95Q1.95-6.37 1.95-12.06L1.95-12.06L1.95-12.77Q1.95-16.58 3.42-19.58Q4.89-22.57 7.55-24.24Q10.21-25.91 13.47-25.91L13.47-25.91Q18.67-25.91 21.50-22.60Q24.34-19.28 24.34-13.21L24.34-13.21L24.34-10.91L7.71-10.91Q7.97-7.76 9.82-5.93Q11.66-4.09 14.46-4.09L14.46-4.09Q18.39-4.09 20.86-7.27L20.86-7.27L23.94-4.33Q22.41-2.05 19.86-0.79Q17.31 0.47 14.13 0.47ZM13.45-21.33L13.45-21.33Q11.10-21.33 9.65-19.68Q8.21-18.04 7.81-15.10L7.81-15.10L18.69-15.10L18.69-15.52Q18.51-18.39 17.17-19.86Q15.82-21.33 13.45-21.33Z" transform="translate(-1.9516655780535597, 36.11757021554539)"/></g></g></g> <g fill-rule="" class="tp-slogan" fill="#c69815" transform="translate(5,42.589996337890625)"><rect x="0" height="1" y="4.90500020980835" width="34.18421173095703"/> <rect height="1" y="4.90500020980835" width="34.18421173095703" x="147.20421600341797"/> <g transform="translate(37.18421173095703,0)"><g transform="scale(1)"><path d="M2.71 0L2.71-7.03L0.34-7.03L0.34-7.87L6.10-7.87L6.10-7.03L3.72-7.03L3.72 0L2.71 0ZM6.86 0L6.86-5.83L7.68-5.83L7.76-4.78L7.80-4.78Q8.10-5.33 8.53-5.65Q8.95-5.98 9.46-5.98L9.46-5.98Q9.80-5.98 10.08-5.86L10.08-5.86L9.89-4.99Q9.74-5.04 9.62-5.06Q9.50-5.09 9.32-5.09L9.32-5.09Q8.95-5.09 8.55-4.79Q8.15-4.49 7.85-3.74L7.85-3.74L7.85 0L6.86 0ZM10.44-1.51L10.44-1.51Q10.44-2.47 11.30-2.98Q12.16-3.49 14.03-3.70L14.03-3.70Q14.03-3.97 13.97-4.24Q13.92-4.50 13.78-4.70Q13.64-4.91 13.42-5.03Q13.19-5.16 12.83-5.16L12.83-5.16Q12.31-5.16 11.87-4.97Q11.44-4.78 11.09-4.54L11.09-4.54L10.69-5.22Q11.10-5.48 11.69-5.73Q12.28-5.98 12.98-5.98L12.98-5.98Q14.05-5.98 14.53-5.32Q15.01-4.67 15.01-3.58L15.01-3.58L15.01 0L14.20 0L14.11-0.70L14.09-0.70Q13.67-0.35 13.18-0.10Q12.70 0.14 12.16 0.14L12.16 0.14Q11.41 0.14 10.93-0.29Q10.44-0.72 10.44-1.51ZM11.41-1.58L11.41-1.58Q11.41-1.08 11.71-0.86Q12-0.65 12.43-0.65L12.43-0.65Q12.85-0.65 13.23-0.85Q13.61-1.04 14.03-1.43L14.03-1.43L14.03-3.05Q13.30-2.95 12.79-2.82Q12.29-2.69 11.98-2.51Q11.68-2.33 11.54-2.09Q11.41-1.86 11.41-1.58ZM16.44-2.90L16.44-2.90Q16.44-3.64 16.67-4.21Q16.90-4.78 17.28-5.17Q17.66-5.57 18.17-5.77Q18.68-5.98 19.25-5.98L19.25-5.98Q19.82-5.98 20.24-5.77Q20.65-5.56 20.95-5.28L20.95-5.28L20.46-4.64Q20.20-4.87 19.91-5.02Q19.63-5.16 19.28-5.16L19.28-5.16Q18.89-5.16 18.55-5.00Q18.22-4.84 17.98-4.54Q17.74-4.24 17.60-3.82Q17.46-3.41 17.46-2.90L17.46-2.90Q17.46-2.40 17.59-1.99Q17.72-1.58 17.96-1.29Q18.19-1.00 18.53-0.83Q18.86-0.67 19.26-0.67L19.26-0.67Q19.68-0.67 20.02-0.85Q20.36-1.02 20.63-1.26L20.63-1.26L21.07-0.61Q20.68-0.26 20.19-0.06Q19.70 0.14 19.18 0.14L19.18 0.14Q18.60 0.14 18.10-0.06Q17.59-0.26 17.23-0.65Q16.86-1.04 16.65-1.61Q16.44-2.18 16.44-2.90ZM21.66-2.90L21.66-2.90Q21.66-3.62 21.88-4.19Q22.10-4.76 22.47-5.16Q22.84-5.56 23.30-5.77Q23.77-5.98 24.28-5.98L24.28-5.98Q24.83-5.98 25.27-5.78Q25.70-5.59 26.00-5.23Q26.29-4.87 26.45-4.37Q26.60-3.86 26.60-3.24L26.60-3.24Q26.60-2.92 26.57-2.70L26.57-2.70L22.63-2.70Q22.69-1.75 23.21-1.20Q23.74-0.65 24.58-0.65L24.58-0.65Q25.00-0.65 25.35-0.77Q25.70-0.90 26.03-1.10L26.03-1.10L26.38-0.46Q25.99-0.22 25.52-0.04Q25.06 0.14 24.46 0.14L24.46 0.14Q23.87 0.14 23.36-0.07Q22.85-0.28 22.47-0.67Q22.09-1.06 21.88-1.62Q21.66-2.18 21.66-2.90ZM22.62-3.35L25.74-3.35Q25.74-4.25 25.36-4.72Q24.98-5.20 24.30-5.20L24.30-5.20Q23.99-5.20 23.71-5.07Q23.42-4.94 23.20-4.71Q22.97-4.48 22.82-4.13Q22.67-3.79 22.62-3.35L22.62-3.35ZM30.97-7.03L30.97-7.03Q30.68-7.03 30.49-7.21Q30.29-7.39 30.29-7.67L30.29-7.67Q30.29-7.96 30.49-8.13Q30.68-8.30 30.97-8.30L30.97-8.30Q31.26-8.30 31.46-8.13Q31.66-7.96 31.66-7.67L31.66-7.67Q31.66-7.39 31.46-7.21Q31.26-7.03 30.97-7.03ZM30.47 0L30.47-5.83L31.45-5.83L31.45 0L30.47 0ZM33.59-1.80L33.59-5.03L32.72-5.03L32.72-5.77L33.64-5.83L33.76-7.46L34.58-7.46L34.58-5.83L36.16-5.83L36.16-5.03L34.58-5.03L34.58-1.79Q34.58-1.25 34.78-0.95Q34.98-0.66 35.48-0.66L35.48-0.66Q35.64-0.66 35.82-0.71Q36-0.76 36.14-0.82L36.14-0.82L36.34-0.07Q36.10 0.01 35.81 0.08Q35.53 0.14 35.26 0.14L35.26 0.14Q34.79 0.14 34.47 0Q34.15-0.14 33.95-0.40Q33.76-0.65 33.67-1.01Q33.59-1.37 33.59-1.80L33.59-1.80ZM44.54-0.60L44.54-0.60Q44.54-0.95 44.75-1.16Q44.96-1.37 45.26-1.37L45.26-1.37Q45.55-1.37 45.76-1.16Q45.97-0.95 45.97-0.60L45.97-0.60Q45.97-0.28 45.76-0.07Q45.55 0.14 45.26 0.14L45.26 0.14Q44.96 0.14 44.75-0.07Q44.54-0.28 44.54-0.60ZM54.80-0.60L54.80-0.60Q54.80-0.95 55.01-1.16Q55.22-1.37 55.52-1.37L55.52-1.37Q55.81-1.37 56.02-1.16Q56.23-0.95 56.23-0.60L56.23-0.60Q56.23-0.28 56.02-0.07Q55.81 0.14 55.52 0.14L55.52 0.14Q55.22 0.14 55.01-0.07Q54.80-0.28 54.80-0.60ZM67.49-0.60L67.49-0.60Q67.49-0.95 67.70-1.16Q67.91-1.37 68.21-1.37L68.21-1.37Q68.50-1.37 68.71-1.16Q68.92-0.95 68.92-0.60L68.92-0.60Q68.92-0.28 68.71-0.07Q68.50 0.14 68.21 0.14L68.21 0.14Q67.91 0.14 67.70-0.07Q67.49-0.28 67.49-0.60ZM82.90 0L82.90-7.87L87.43-7.87L87.43-7.03L83.89-7.03L83.89-4.56L86.88-4.56L86.88-3.71L83.89-3.71L83.89-0.85L87.55-0.85L87.55 0L82.90 0ZM88.84-1.51L88.84-1.51Q88.84-2.47 89.69-2.98Q90.55-3.49 92.42-3.70L92.42-3.70Q92.42-3.97 92.37-4.24Q92.32-4.50 92.18-4.70Q92.04-4.91 91.81-5.03Q91.58-5.16 91.22-5.16L91.22-5.16Q90.71-5.16 90.27-4.97Q89.83-4.78 89.48-4.54L89.48-4.54L89.09-5.22Q89.50-5.48 90.08-5.73Q90.67-5.98 91.38-5.98L91.38-5.98Q92.45-5.98 92.93-5.32Q93.41-4.67 93.41-3.58L93.41-3.58L93.41 0L92.59 0L92.51-0.70L92.48-0.70Q92.06-0.35 91.58-0.10Q91.09 0.14 90.55 0.14L90.55 0.14Q89.81 0.14 89.32-0.29Q88.84-0.72 88.84-1.51ZM89.81-1.58L89.81-1.58Q89.81-1.08 90.10-0.86Q90.40-0.65 90.83-0.65L90.83-0.65Q91.25-0.65 91.63-0.85Q92.00-1.04 92.42-1.43L92.42-1.43L92.42-3.05Q91.69-2.95 91.19-2.82Q90.68-2.69 90.38-2.51Q90.07-2.33 89.94-2.09Q89.81-1.86 89.81-1.58ZM94.62-0.66L95.11-1.32Q95.50-1.01 95.90-0.82Q96.30-0.62 96.83-0.62L96.83-0.62Q97.40-0.62 97.69-0.89Q97.98-1.15 97.98-1.54L97.98-1.54Q97.98-1.76 97.86-1.93Q97.74-2.10 97.55-2.23Q97.37-2.35 97.13-2.45Q96.89-2.54 96.65-2.64L96.65-2.64Q96.34-2.75 96.02-2.89Q95.71-3.02 95.47-3.22Q95.22-3.42 95.06-3.68Q94.91-3.95 94.91-4.32L94.91-4.32Q94.91-4.67 95.05-4.97Q95.18-5.28 95.44-5.50Q95.70-5.72 96.07-5.85Q96.44-5.98 96.91-5.98L96.91-5.98Q97.46-5.98 97.93-5.78Q98.39-5.59 98.72-5.32L98.72-5.32L98.26-4.69Q97.96-4.92 97.63-5.06Q97.31-5.21 96.92-5.21L96.92-5.21Q96.37-5.21 96.11-4.96Q95.86-4.70 95.86-4.37L95.86-4.37Q95.86-4.16 95.96-4.01Q96.07-3.86 96.25-3.75Q96.43-3.64 96.67-3.55Q96.90-3.46 97.15-3.36L97.15-3.36Q97.46-3.24 97.78-3.11Q98.10-2.98 98.35-2.78Q98.60-2.58 98.77-2.29Q98.93-2.00 98.93-1.60L98.93-1.60Q98.93-1.24 98.79-0.92Q98.65-0.61 98.38-0.37Q98.11-0.13 97.71 0.01Q97.31 0.14 96.79 0.14L96.79 0.14Q96.17 0.14 95.60-0.08Q95.04-0.31 94.62-0.66L94.62-0.66ZM99.90 1.61L99.90 1.61Q100.00 1.63 100.12 1.66Q100.24 1.69 100.34 1.69L100.34 1.69Q100.85 1.69 101.17 1.34Q101.48 0.98 101.66 0.44L101.66 0.44L101.80 0.01L99.46-5.83L100.48-5.83L101.66-2.60Q101.80-2.22 101.95-1.79Q102.10-1.37 102.23-0.96L102.23-0.96L102.28-0.96Q102.41-1.36 102.53-1.79Q102.65-2.22 102.77-2.60L102.77-2.60L103.81-5.83L104.77-5.83L102.58 0.48Q102.42 0.91 102.23 1.28Q102.04 1.66 101.77 1.93Q101.51 2.20 101.17 2.35Q100.84 2.51 100.39 2.51L100.39 2.51Q100.19 2.51 100.02 2.48Q99.85 2.45 99.71 2.39L99.71 2.39L99.90 1.61ZM106.31-2.38L106.18-6.91L106.15-8.04L107.15-8.04L107.12-6.91L106.99-2.38L106.31-2.38ZM105.94-0.60L105.94-0.60Q105.94-0.95 106.15-1.16Q106.36-1.37 106.66-1.37L106.66-1.37Q106.94-1.37 107.15-1.16Q107.36-0.95 107.36-0.60L107.36-0.60Q107.36-0.28 107.15-0.07Q106.94 0.14 106.66 0.14L106.66 0.14Q106.36 0.14 106.15-0.07Q105.94-0.28 105.94-0.60Z" transform="translate(-0.336, 8.304)"/></g></g></g></g><defs v-gra="od"/>
  </svg>
</svg>


